<svg width="333" height="35" viewBox="0 0 333 35" fill="none" xmlns="http://www.w3.org/2000/svg">
<g filter="url(#filter0_d_1_3)">
<path d="M4.61719 17.07C4.61719 16.21 4.83719 15.48 5.27719 14.88C5.73719 14.28 6.35719 13.82 7.13719 13.5C7.23719 13.46 7.30719 13.49 7.34719 13.59C7.38719 13.69 7.37719 13.78 7.31719 13.86C6.95719 14.06 6.66719 14.37 6.44719 14.79C6.24719 15.21 6.14719 15.72 6.14719 16.32C6.14719 17.54 6.59719 18.5 7.49719 19.2C8.39719 19.9 9.56719 20.25 11.0072 20.25C12.8872 20.25 14.2272 19.88 15.0272 19.14C15.8472 18.4 16.2572 17.43 16.2572 16.23C16.2572 15.11 16.0272 14.13 15.5672 13.29C15.1072 12.43 14.5972 11.63 14.0372 10.89C13.4972 10.13 12.9972 9.37 12.5372 8.61C12.0772 7.85 11.8472 6.99 11.8472 6.03C11.8472 5.47 11.9672 4.93 12.2072 4.41C12.4672 3.89 12.8172 3.43 13.2572 3.03C13.7172 2.61 14.2572 2.28 14.8772 2.04C15.4972 1.8 16.1772 1.68 16.9172 1.68C17.9372 1.68 18.7372 1.9 19.3172 2.34C19.9172 2.76 20.2172 3.27 20.2172 3.87C20.2172 4.21 20.0672 4.63 19.7672 5.13C19.4872 5.61 19.1972 6.03 18.8972 6.39C18.8172 6.43 18.7472 6.42 18.6872 6.36C18.6272 6.3 18.6072 6.23 18.6272 6.15C18.7272 5.99 18.8072 5.8 18.8672 5.58C18.9472 5.34 18.9872 5.08 18.9872 4.8C18.9872 4.48 18.9172 4.18 18.7772 3.9C18.6372 3.6 18.4372 3.35 18.1772 3.15C17.9172 2.93 17.6172 2.76 17.2772 2.64C16.9372 2.5 16.5772 2.43 16.1972 2.43C15.1972 2.43 14.4672 2.67 14.0072 3.15C13.5472 3.63 13.3172 4.25 13.3172 5.01C13.3172 5.61 13.4272 6.18 13.6472 6.72C13.8872 7.24 14.1772 7.77 14.5172 8.31C14.8572 8.83 15.2172 9.36 15.5972 9.9C15.9972 10.42 16.3672 10.97 16.7072 11.55C17.0472 12.11 17.3272 12.71 17.5472 13.35C17.7872 13.97 17.9072 14.65 17.9072 15.39C17.9072 16.17 17.7072 16.9 17.3072 17.58C16.9272 18.26 16.3972 18.86 15.7172 19.38C15.0372 19.88 14.2472 20.28 13.3472 20.58C12.4472 20.86 11.4772 21 10.4372 21C8.53719 21 7.08719 20.63 6.08719 19.89C5.10719 19.15 4.61719 18.21 4.61719 17.07ZM38.778 19.98C38.858 18.82 38.838 17.59 38.718 16.29C38.618 14.97 38.518 13.7 38.418 12.48C38.318 11.24 38.268 10.12 38.268 9.12C38.268 8.1 38.428 7.3 38.748 6.72C38.068 7.66 37.428 8.59 36.828 9.51C36.248 10.41 35.678 11.35 35.118 12.33C34.558 13.31 34.008 14.35 33.468 15.45C32.948 16.53 32.408 17.71 31.848 18.99C31.548 19.69 31.348 20.2 31.248 20.52C31.168 20.84 31.038 21 30.858 21C30.698 21 30.588 20.93 30.528 20.79C30.488 20.63 30.548 20.36 30.708 19.98C31.268 18.58 31.718 17.18 32.058 15.78C32.398 14.38 32.618 13.05 32.718 11.79C32.818 10.53 32.808 9.36 32.688 8.28C32.568 7.2 32.328 6.26 31.968 5.46C31.628 4.66 31.168 4.04 30.588 3.6C30.028 3.14 29.358 2.91 28.578 2.91C27.818 2.91 27.148 3.07 26.568 3.39C26.008 3.71 25.528 4.14 25.128 4.68C24.748 5.2 24.458 5.81 24.258 6.51C24.058 7.19 23.958 7.91 23.958 8.67C23.918 8.79 23.848 8.86 23.748 8.88C23.668 8.9 23.628 8.86 23.628 8.76C23.588 7.8 23.708 6.89 23.988 6.03C24.268 5.15 24.668 4.38 25.188 3.72C25.708 3.06 26.348 2.54 27.108 2.16C27.888 1.76 28.758 1.56 29.718 1.56C30.958 1.56 31.928 1.95 32.628 2.73C33.348 3.51 33.818 4.57 34.038 5.91C34.278 7.23 34.278 8.77 34.038 10.53C33.798 12.29 33.338 14.15 32.658 16.11C33.198 14.97 33.798 13.8 34.458 12.6C35.118 11.4 35.818 10.23 36.558 9.09C37.318 7.95 38.108 6.87 38.928 5.85C39.748 4.81 40.578 3.9 41.418 3.12C41.518 3.08 41.598 3.16 41.658 3.36C41.718 3.56 41.708 3.72 41.628 3.84C41.308 3.98 41.028 4.2 40.788 4.5C40.448 4.94 40.208 5.5 40.068 6.18C39.948 6.84 39.878 7.58 39.858 8.4C39.858 9.2 39.898 10.05 39.978 10.95C40.058 11.83 40.138 12.72 40.218 13.62C40.298 14.5 40.358 15.36 40.398 16.2C40.438 17.04 40.418 17.81 40.338 18.51C40.838 17.79 41.398 17.1 42.018 16.44C42.638 15.78 43.268 15.12 43.908 14.46C44.548 13.8 45.168 13.14 45.768 12.48C46.368 11.8 46.898 11.09 47.358 10.35C47.838 9.59 48.218 8.79 48.498 7.95C48.798 7.09 48.948 6.16 48.948 5.16C48.948 4.5 48.848 3.98 48.648 3.6C48.468 3.22 48.208 3.03 47.868 3.03C47.628 3.03 47.418 3.15 47.238 3.39C47.078 3.63 46.918 3.9 46.758 4.2C46.698 4.24 46.638 4.24 46.578 4.2C46.518 4.16 46.488 4.09 46.488 3.99C46.708 3.39 47.018 2.86 47.418 2.4C47.838 1.94 48.248 1.71 48.648 1.71C49.308 1.71 49.798 1.97 50.118 2.49C50.458 3.01 50.628 3.65 50.628 4.41C50.628 5.57 50.438 6.63 50.058 7.59C49.698 8.53 49.218 9.42 48.618 10.26C48.018 11.08 47.328 11.87 46.548 12.63C45.788 13.39 45.008 14.16 44.208 14.94C43.408 15.72 42.618 16.54 41.838 17.4C41.078 18.26 40.398 19.2 39.798 20.22C39.638 20.46 39.488 20.65 39.348 20.79C39.228 20.93 39.088 21 38.928 21C38.828 21 38.758 20.97 38.718 20.91C38.698 20.85 38.688 20.77 38.688 20.67C38.688 20.57 38.698 20.46 38.718 20.34C38.758 20.22 38.778 20.1 38.778 19.98ZM58.4798 5.31C58.4798 6.01 58.7198 6.61 59.1998 7.11C59.6798 7.59 60.4898 8 61.6298 8.34C61.6898 8.38 61.6798 8.46 61.5998 8.58C61.5398 8.68 61.4498 8.8 61.3298 8.94C61.2098 9.06 61.0798 9.17 60.9398 9.27C60.7998 9.37 60.6898 9.43 60.6098 9.45C58.3898 9.35 56.6698 9.83 55.4498 10.89C54.2498 11.93 53.6498 13.48 53.6498 15.54C53.6498 16.24 53.7498 16.89 53.9498 17.49C54.1698 18.09 54.4698 18.61 54.8498 19.05C55.2498 19.49 55.7198 19.84 56.2598 20.1C56.8198 20.34 57.4498 20.46 58.1498 20.46C59.7898 20.46 61.1298 20.08 62.1698 19.32C63.2098 18.56 63.9598 17.33 64.4198 15.63C64.4798 15.53 64.5398 15.5 64.5998 15.54C64.6798 15.58 64.7298 15.66 64.7498 15.78C64.5098 16.9 64.2198 17.83 63.8798 18.57C63.5598 19.31 63.2598 19.74 62.9798 19.86C62.1398 20.24 61.2898 20.53 60.4298 20.73C59.5698 20.91 58.5598 21 57.3998 21C55.5198 21 54.0898 20.59 53.1098 19.77C52.1298 18.93 51.6398 17.76 51.6398 16.26C51.6398 15.3 51.8298 14.42 52.2098 13.62C52.5898 12.8 53.1098 12.07 53.7698 11.43C54.4498 10.79 55.2498 10.25 56.1698 9.81C57.0898 9.37 58.0998 9.05 59.1998 8.85C58.4398 8.53 57.8298 8.1 57.3698 7.56C56.9098 7.02 56.6798 6.4 56.6798 5.7C56.6798 5.16 56.8098 4.65 57.0698 4.17C57.3498 3.67 57.7498 3.24 58.2698 2.88C58.7898 2.52 59.4298 2.23 60.1898 2.01C60.9498 1.79 61.8198 1.68 62.7998 1.68C63.3398 1.68 63.8498 1.73 64.3298 1.83C64.8098 1.93 65.2298 2.06 65.5898 2.22C65.9698 2.38 66.2598 2.57 66.4598 2.79C66.6798 2.99 66.7898 3.19 66.7898 3.39C66.7898 3.55 66.7498 3.75 66.6698 3.99C66.6098 4.23 66.5198 4.47 66.3998 4.71C66.2998 4.95 66.1898 5.18 66.0698 5.4C65.9698 5.6 65.8898 5.74 65.8298 5.82C65.7698 5.86 65.7098 5.86 65.6498 5.82C65.5898 5.78 65.5698 5.72 65.5898 5.64C65.7098 5.42 65.7898 5.18 65.8298 4.92C65.8698 4.66 65.8298 4.39 65.7098 4.11C65.4698 3.61 65.0198 3.19 64.3598 2.85C63.7198 2.49 62.9598 2.31 62.0798 2.31C60.8798 2.31 59.9798 2.59 59.3798 3.15C58.7798 3.69 58.4798 4.41 58.4798 5.31ZM76.8607 5.31C76.8607 6.01 77.1007 6.61 77.5807 7.11C78.0607 7.59 78.8707 8 80.0107 8.34C80.0707 8.38 80.0607 8.46 79.9807 8.58C79.9207 8.68 79.8307 8.8 79.7107 8.94C79.5907 9.06 79.4607 9.17 79.3207 9.27C79.1807 9.37 79.0707 9.43 78.9907 9.45C76.7707 9.35 75.0507 9.83 73.8307 10.89C72.6307 11.93 72.0307 13.48 72.0307 15.54C72.0307 16.24 72.1307 16.89 72.3307 17.49C72.5507 18.09 72.8507 18.61 73.2307 19.05C73.6307 19.49 74.1007 19.84 74.6407 20.1C75.2007 20.34 75.8307 20.46 76.5307 20.46C78.1707 20.46 79.5107 20.08 80.5507 19.32C81.5907 18.56 82.3407 17.33 82.8007 15.63C82.8607 15.53 82.9207 15.5 82.9807 15.54C83.0607 15.58 83.1107 15.66 83.1307 15.78C82.8907 16.9 82.6007 17.83 82.2607 18.57C81.9407 19.31 81.6407 19.74 81.3607 19.86C80.5207 20.24 79.6707 20.53 78.8107 20.73C77.9507 20.91 76.9407 21 75.7807 21C73.9007 21 72.4707 20.59 71.4907 19.77C70.5107 18.93 70.0207 17.76 70.0207 16.26C70.0207 15.3 70.2107 14.42 70.5907 13.62C70.9707 12.8 71.4907 12.07 72.1507 11.43C72.8307 10.79 73.6307 10.25 74.5507 9.81C75.4707 9.37 76.4807 9.05 77.5807 8.85C76.8207 8.53 76.2107 8.1 75.7507 7.56C75.2907 7.02 75.0607 6.4 75.0607 5.7C75.0607 5.16 75.1907 4.65 75.4507 4.17C75.7307 3.67 76.1307 3.24 76.6507 2.88C77.1707 2.52 77.8107 2.23 78.5707 2.01C79.3307 1.79 80.2007 1.68 81.1807 1.68C81.7207 1.68 82.2307 1.73 82.7107 1.83C83.1907 1.93 83.6107 2.06 83.9707 2.22C84.3507 2.38 84.6407 2.57 84.8407 2.79C85.0607 2.99 85.1707 3.19 85.1707 3.39C85.1707 3.55 85.1307 3.75 85.0507 3.99C84.9907 4.23 84.9007 4.47 84.7807 4.71C84.6807 4.95 84.5707 5.18 84.4507 5.4C84.3507 5.6 84.2707 5.74 84.2107 5.82C84.1507 5.86 84.0907 5.86 84.0307 5.82C83.9707 5.78 83.9507 5.72 83.9707 5.64C84.0907 5.42 84.1707 5.18 84.2107 4.92C84.2507 4.66 84.2107 4.39 84.0907 4.11C83.8507 3.61 83.4007 3.19 82.7407 2.85C82.1007 2.49 81.3407 2.31 80.4607 2.31C79.2607 2.31 78.3607 2.59 77.7607 3.15C77.1607 3.69 76.8607 4.41 76.8607 5.31ZM111.382 3.39C111.522 3.49 111.512 3.64 111.352 3.84C111.172 4.1 110.942 4.31 110.662 4.47C110.402 4.61 110.192 4.66 110.032 4.62C109.832 4.56 109.632 4.5 109.432 4.44C109.252 4.38 109.052 4.32 108.832 4.26C108.332 4.3 107.852 4.46 107.392 4.74C106.932 5 106.492 5.4 106.072 5.94C105.652 6.46 105.252 7.13 104.872 7.95C104.492 8.75 104.122 9.72 103.762 10.86C102.722 14.24 101.262 16.78 99.3816 18.48C97.5216 20.16 95.2816 21 92.6616 21C91.2216 21 90.1016 20.69 89.3016 20.07C88.5016 19.45 88.1016 18.65 88.1016 17.67C88.1016 16.97 88.3216 16.33 88.7616 15.75C89.2216 15.15 89.7716 14.71 90.4116 14.43C90.4916 14.43 90.5416 14.47 90.5616 14.55C90.6016 14.63 90.6016 14.7 90.5616 14.76C90.2216 15.02 89.9816 15.31 89.8416 15.63C89.7016 15.95 89.6316 16.32 89.6316 16.74C89.6316 17.76 90.0116 18.55 90.7716 19.11C91.5516 19.67 92.6416 19.95 94.0416 19.95C95.0016 19.95 95.8416 19.83 96.5616 19.59C97.3016 19.33 97.9616 18.89 98.5416 18.27C99.1216 17.65 99.6516 16.82 100.132 15.78C100.632 14.72 101.142 13.39 101.662 11.79C102.382 9.53 103.262 7.75 104.302 6.45C105.342 5.13 106.542 4.32 107.902 4.02C106.582 3.68 105.212 3.41 103.792 3.21C102.372 3.01 100.932 2.91 99.4716 2.91C98.3516 2.91 97.3716 3.09 96.5316 3.45C95.6916 3.79 95.0016 4.26 94.4616 4.86C93.9216 5.44 93.5316 6.13 93.2916 6.93C93.0516 7.73 92.9916 8.58 93.1116 9.48C93.0116 9.68 92.9016 9.7 92.7816 9.54C92.6616 8.54 92.7416 7.57 93.0216 6.63C93.3016 5.69 93.7716 4.85 94.4316 4.11C95.0916 3.37 95.9416 2.78 96.9816 2.34C98.0416 1.9 99.3016 1.68 100.762 1.68C102.882 1.68 104.822 1.86 106.582 2.22C108.342 2.56 109.942 2.95 111.382 3.39ZM124.635 2.85C123.275 2.85 122.025 3.14 120.885 3.72C119.765 4.28 118.795 5.06 117.975 6.06C117.175 7.04 116.545 8.2 116.085 9.54C115.645 10.86 115.425 12.29 115.425 13.83C115.425 15.19 115.665 16.22 116.145 16.92C116.645 17.62 117.405 17.97 118.425 17.97C119.605 17.97 120.625 17.65 121.485 17.01C122.345 16.35 122.945 15.42 123.285 14.22C123.325 14.06 123.455 13.93 123.675 13.83C123.895 13.71 124.125 13.63 124.365 13.59C124.605 13.55 124.825 13.55 125.025 13.59C125.225 13.61 125.325 13.68 125.325 13.8C124.685 16.06 123.925 18 123.045 19.62C122.165 21.24 121.175 22.56 120.075 23.58C118.975 24.62 117.775 25.38 116.475 25.86C115.175 26.34 113.795 26.58 112.335 26.58C110.355 26.58 108.845 26.17 107.805 25.35C106.785 24.53 106.275 23.42 106.275 22.02C106.275 21.18 106.535 20.4 107.055 19.68C107.575 18.96 108.375 18.4 109.455 18C109.555 17.96 109.615 18 109.635 18.12C109.655 18.22 109.625 18.31 109.545 18.39C109.065 18.67 108.705 19.04 108.465 19.5C108.245 19.94 108.135 20.54 108.135 21.3C108.135 22.8 108.565 23.96 109.425 24.78C110.305 25.62 111.535 26.04 113.115 26.04C114.195 26.04 115.195 25.87 116.115 25.53C117.035 25.21 117.885 24.68 118.665 23.94C119.445 23.22 120.155 22.26 120.795 21.06C121.435 19.88 122.025 18.43 122.565 16.71C121.945 17.23 121.235 17.67 120.435 18.03C119.655 18.37 118.785 18.54 117.825 18.54C114.865 18.54 113.385 17.2 113.385 14.52C113.385 13.6 113.535 12.65 113.835 11.67C114.155 10.67 114.595 9.7 115.155 8.76C115.715 7.8 116.385 6.9 117.165 6.06C117.945 5.2 118.795 4.45 119.715 3.81C120.655 3.17 121.655 2.66 122.715 2.28C123.775 1.9 124.875 1.71 126.015 1.71C126.975 1.71 127.745 1.92 128.325 2.34C128.905 2.76 129.195 3.29 129.195 3.93C129.195 4.15 129.125 4.41 128.985 4.71C128.845 5.01 128.665 5.32 128.445 5.64C128.245 5.94 128.035 6.24 127.815 6.54C127.595 6.82 127.415 7.07 127.275 7.29C127.215 7.33 127.145 7.33 127.065 7.29C126.985 7.23 126.955 7.16 126.975 7.08C127.255 6.64 127.455 6.25 127.575 5.91C127.715 5.57 127.785 5.2 127.785 4.8C127.785 4.24 127.525 3.78 127.005 3.42C126.505 3.04 125.715 2.85 124.635 2.85ZM154.795 18.72C154.835 18.68 154.895 18.66 154.975 18.66C155.075 18.66 155.105 18.71 155.065 18.81C154.645 19.49 154.155 20.03 153.595 20.43C153.035 20.81 152.435 21 151.795 21C150.915 21 150.165 20.75 149.545 20.25C148.925 19.73 148.385 19.05 147.925 18.21C147.485 17.35 147.115 16.36 146.815 15.24C146.515 14.12 146.235 12.95 145.975 11.73C145.975 11.59 146.015 11.51 146.095 11.49C146.195 11.43 146.375 11.37 146.635 11.31C146.915 11.23 147.165 11.15 147.385 11.07C147.445 11.05 147.535 11.06 147.655 11.1C147.795 11.12 147.955 11.15 148.135 11.19C148.335 11.21 148.565 11.23 148.825 11.25C149.085 11.25 149.385 11.21 149.725 11.13C150.585 10.93 151.255 10.49 151.735 9.81C152.215 9.11 152.455 8.17 152.455 6.99C152.455 6.41 152.355 5.86 152.155 5.34C151.975 4.82 151.695 4.37 151.315 3.99C150.955 3.59 150.495 3.27 149.935 3.03C149.395 2.77 148.755 2.61 148.015 2.55C147.495 3.21 147.025 4.03 146.605 5.01C146.205 5.99 145.835 7.12 145.495 8.4C144.895 10.6 144.195 12.5 143.395 14.1C142.615 15.68 141.745 16.98 140.785 18C139.825 19.02 138.785 19.78 137.665 20.28C136.545 20.76 135.375 21 134.155 21C132.775 21 131.765 20.69 131.125 20.07C130.505 19.43 130.195 18.6 130.195 17.58C130.195 16.66 130.455 15.85 130.975 15.15C131.515 14.45 132.165 13.96 132.925 13.68C133.125 13.6 133.185 13.67 133.105 13.89C131.945 14.51 131.365 15.43 131.365 16.65C131.365 17.63 131.675 18.42 132.295 19.02C132.915 19.6 133.845 19.89 135.085 19.89C136.085 19.89 136.955 19.78 137.695 19.56C138.455 19.32 139.145 18.85 139.765 18.15C140.385 17.43 140.965 16.41 141.505 15.09C142.065 13.77 142.645 12.02 143.245 9.84C144.145 6.52 145.395 4.09 146.995 2.55C145.135 2.61 143.535 2.97 142.195 3.63C140.875 4.27 139.735 5.28 138.775 6.66C138.695 6.7 138.625 6.7 138.565 6.66C138.505 6.62 138.495 6.55 138.535 6.45C139.475 5.07 140.735 3.96 142.315 3.12C143.895 2.26 145.805 1.78 148.045 1.68C148.785 1.18 149.605 0.809999 150.505 0.569998C150.605 0.569998 150.655 0.609998 150.655 0.689999C150.655 0.749999 150.605 0.799999 150.505 0.839998C149.965 0.979999 149.435 1.26 148.915 1.68C149.755 1.68 150.505 1.81 151.165 2.07C151.825 2.33 152.385 2.68 152.845 3.12C153.305 3.56 153.655 4.06 153.895 4.62C154.135 5.18 154.255 5.76 154.255 6.36C154.255 7.2 154.095 7.96 153.775 8.64C153.475 9.32 153.035 9.9 152.455 10.38C151.895 10.86 151.205 11.22 150.385 11.46C149.585 11.68 148.685 11.74 147.685 11.64C147.985 13.2 148.315 14.51 148.675 15.57C149.035 16.61 149.425 17.44 149.845 18.06C150.285 18.68 150.765 19.12 151.285 19.38C151.825 19.64 152.405 19.77 153.025 19.77C153.705 19.77 154.295 19.42 154.795 18.72ZM188.429 3.45C188.489 3.49 188.519 3.55 188.519 3.63C188.519 3.69 188.459 3.78 188.339 3.9C187.679 4.62 187.089 5.45 186.569 6.39C186.049 7.31 185.609 8.32 185.249 9.42C184.889 10.52 184.609 11.68 184.409 12.9C184.209 14.12 184.109 15.37 184.109 16.65C184.109 17.61 184.219 18.36 184.439 18.9C184.679 19.42 185.089 19.68 185.669 19.68C186.469 19.68 187.229 19.12 187.949 18C188.009 17.96 188.069 17.96 188.129 18C188.189 18.04 188.209 18.1 188.189 18.18C187.669 19.02 187.089 19.7 186.449 20.22C185.829 20.74 185.249 21 184.709 21C183.909 21 183.299 20.69 182.879 20.07C182.479 19.45 182.279 18.57 182.279 17.43C182.279 15.83 182.459 14.2 182.819 12.54C181.879 12.54 180.949 12.55 180.029 12.57C179.129 12.59 178.249 12.62 177.389 12.66C176.729 13.36 176.089 14.02 175.469 14.64C174.869 15.26 174.279 15.83 173.699 16.35C172.099 17.81 170.449 18.95 168.749 19.77C167.069 20.59 165.219 21 163.199 21C162.119 21 161.249 20.76 160.589 20.28C159.949 19.8 159.519 19.19 159.299 18.45C159.099 17.71 159.109 16.9 159.329 16.02C159.549 15.14 159.989 14.29 160.649 13.47C160.709 13.43 160.779 13.44 160.859 13.5C160.939 13.54 160.969 13.63 160.949 13.77C160.489 14.27 160.229 14.85 160.169 15.51C160.129 16.15 160.269 16.76 160.589 17.34C160.929 17.9 161.449 18.38 162.149 18.78C162.849 19.16 163.729 19.35 164.789 19.35C166.489 19.35 168.079 19 169.559 18.3C171.059 17.6 172.469 16.65 173.789 15.45C174.249 15.05 174.709 14.62 175.169 14.16C175.629 13.7 176.109 13.22 176.609 12.72C175.909 12.76 175.249 12.81 174.629 12.87C174.009 12.91 173.429 12.97 172.889 13.05C172.789 13.03 172.769 12.98 172.829 12.9C172.889 12.82 172.979 12.74 173.099 12.66C173.219 12.56 173.359 12.48 173.519 12.42C173.699 12.34 173.869 12.29 174.029 12.27C174.289 12.25 174.689 12.24 175.229 12.24C175.789 12.22 176.419 12.2 177.119 12.18C178.239 11.02 179.479 9.77 180.839 8.43C182.219 7.07 183.849 5.65 185.729 4.17C184.389 3.73 182.999 3.37 181.559 3.09C180.139 2.79 178.769 2.64 177.449 2.64C175.949 2.64 174.719 3.06 173.759 3.9C172.799 4.72 172.209 6.02 171.989 7.8C171.949 7.9 171.889 7.94 171.809 7.92C171.749 7.9 171.709 7.84 171.689 7.74C171.929 5.78 172.659 4.28 173.879 3.24C175.099 2.2 176.679 1.68 178.619 1.68C179.439 1.68 180.299 1.74 181.199 1.86C182.099 1.96 182.979 2.1 183.839 2.28C184.719 2.44 185.549 2.63 186.329 2.85C187.129 3.05 187.829 3.25 188.429 3.45ZM182.909 12.15C183.229 10.71 183.679 9.31 184.259 7.95C184.839 6.59 185.549 5.34 186.389 4.2C184.629 5.62 183.059 7 181.679 8.34C180.299 9.68 179.029 10.96 177.869 12.18C178.829 12.16 179.769 12.15 180.689 12.15C181.629 12.15 182.369 12.15 182.909 12.15ZM208.848 3.18C209.828 3.72 210.728 4.37 211.548 5.13C212.388 5.87 213.108 6.69 213.708 7.59C214.308 8.49 214.768 9.43 215.088 10.41C215.428 11.39 215.598 12.37 215.598 13.35C215.598 14.45 215.388 15.47 214.968 16.41C214.548 17.35 213.958 18.16 213.198 18.84C212.438 19.52 211.518 20.05 210.438 20.43C209.378 20.81 208.198 21 206.898 21C206.138 21 205.428 20.96 204.768 20.88C204.108 20.78 203.478 20.66 202.878 20.52C202.298 20.36 201.728 20.19 201.168 20.01C200.628 19.81 200.088 19.62 199.548 19.44C198.788 19.98 197.938 20.38 196.998 20.64C196.078 20.88 195.048 21 193.908 21C193.268 21 192.808 20.93 192.528 20.79C192.268 20.63 192.138 20.42 192.138 20.16C192.138 19.9 192.228 19.62 192.408 19.32C192.608 19 192.878 18.71 193.218 18.45C193.578 18.19 193.988 17.98 194.448 17.82C194.928 17.64 195.458 17.55 196.038 17.55C196.818 17.55 197.528 17.62 198.168 17.76C198.828 17.9 199.478 18.08 200.118 18.3C200.818 17.5 201.478 16.42 202.098 15.06C202.718 13.7 203.368 11.96 204.048 9.84C204.448 8.6 204.878 7.5 205.338 6.54C205.818 5.58 206.368 4.75 206.988 4.05C206.188 3.65 205.338 3.35 204.438 3.15C203.558 2.93 202.638 2.82 201.678 2.82C200.798 2.82 200.028 2.95 199.368 3.21C198.728 3.47 198.188 3.82 197.748 4.26C197.308 4.7 196.958 5.21 196.698 5.79C196.438 6.37 196.258 6.98 196.158 7.62C196.118 7.66 196.068 7.67 196.008 7.65C195.948 7.63 195.918 7.58 195.918 7.5C195.998 6.68 196.218 5.92 196.578 5.22C196.938 4.5 197.418 3.88 198.018 3.36C198.638 2.84 199.368 2.43 200.208 2.13C201.048 1.83 201.998 1.68 203.058 1.68C203.978 1.68 204.868 1.79 205.728 2.01C206.588 2.21 207.418 2.5 208.218 2.88C208.738 2.46 209.298 2.11 209.898 1.83C210.518 1.55 211.208 1.33 211.968 1.17C212.028 1.17 212.058 1.21 212.058 1.29C212.058 1.35 212.028 1.4 211.968 1.44C210.788 1.76 209.748 2.34 208.848 3.18ZM194.928 20.46C195.768 20.46 196.518 20.38 197.178 20.22C197.858 20.04 198.488 19.73 199.068 19.29C198.408 19.09 197.728 18.92 197.028 18.78C196.328 18.64 195.558 18.57 194.718 18.57C194.258 18.57 193.918 18.65 193.698 18.81C193.498 18.97 193.398 19.19 193.398 19.47C193.398 19.77 193.518 20.01 193.758 20.19C194.018 20.37 194.408 20.46 194.928 20.46ZM208.368 20.01C210.288 20.01 211.698 19.51 212.598 18.51C213.498 17.49 213.948 16.08 213.948 14.28C213.948 13.34 213.798 12.4 213.498 11.46C213.198 10.52 212.778 9.62 212.238 8.76C211.698 7.9 211.048 7.1 210.288 6.36C209.528 5.62 208.678 4.98 207.738 4.44C206.838 5.66 206.068 7.25 205.428 9.21C204.728 11.43 203.998 13.3 203.238 14.82C202.498 16.32 201.648 17.55 200.688 18.51C201.188 18.69 201.698 18.87 202.218 19.05C202.758 19.21 203.338 19.37 203.958 19.53C204.578 19.67 205.248 19.79 205.968 19.89C206.688 19.97 207.488 20.01 208.368 20.01ZM242.07 1.65C242.15 1.69 242.17 1.77 242.13 1.89C242.11 1.99 242.05 2.11 241.95 2.25C241.85 2.37 241.73 2.49 241.59 2.61C241.47 2.73 241.35 2.82 241.23 2.88C240.79 3 240.41 3.18 240.09 3.42C239.77 3.64 239.47 3.96 239.19 4.38C238.93 4.8 238.68 5.35 238.44 6.03C238.2 6.69 237.95 7.54 237.69 8.58C236.99 11.28 235.98 13.57 234.66 15.45C234.92 15.41 235.16 15.35 235.38 15.27C235.62 15.19 235.79 15.12 235.89 15.06C235.95 15.04 235.99 15.06 236.01 15.12C236.03 15.16 236.02 15.21 235.98 15.27C235.82 15.37 235.6 15.47 235.32 15.57C235.04 15.67 234.75 15.74 234.45 15.78C233.19 17.48 231.74 18.78 230.1 19.68C228.46 20.56 226.69 21 224.79 21C223.33 21 222.21 20.74 221.43 20.22C220.65 19.7 220.26 19.03 220.26 18.21C220.26 17.51 220.54 16.85 221.1 16.23C221.66 15.59 222.54 15.12 223.74 14.82C223.84 14.84 223.89 14.88 223.89 14.94C223.91 15 223.9 15.05 223.86 15.09C222.64 15.49 222.03 16.25 222.03 17.37C222.03 18.21 222.36 18.88 223.02 19.38C223.68 19.88 224.6 20.13 225.78 20.13C227.34 20.13 228.74 19.81 229.98 19.17C231.22 18.51 232.31 17.41 233.25 15.87C232.23 15.81 231.45 15.42 230.91 14.7C230.37 13.98 230.1 13.05 230.1 11.91C230.1 10.67 230.43 9.44 231.09 8.22C231.75 7 232.63 5.9 233.73 4.92C234.83 3.94 236.1 3.15 237.54 2.55C239 1.95 240.51 1.65 242.07 1.65ZM235.83 9.24C236.05 8.34 236.29 7.57 236.55 6.93C236.81 6.29 237.1 5.74 237.42 5.28C237.74 4.8 238.1 4.39 238.5 4.05C238.92 3.71 239.4 3.39 239.94 3.09C238.56 3.25 237.29 3.62 236.13 4.2C234.97 4.78 233.97 5.48 233.13 6.3C232.29 7.1 231.64 7.98 231.18 8.94C230.72 9.9 230.49 10.85 230.49 11.79C230.49 12.99 230.75 13.91 231.27 14.55C231.79 15.17 232.5 15.51 233.4 15.57C234.34 13.97 235.15 11.86 235.83 9.24ZM248.183 5.31C248.183 6.01 248.423 6.61 248.903 7.11C249.383 7.59 250.193 8 251.333 8.34C251.393 8.38 251.383 8.46 251.303 8.58C251.243 8.68 251.153 8.8 251.033 8.94C250.913 9.06 250.783 9.17 250.643 9.27C250.503 9.37 250.393 9.43 250.313 9.45C248.093 9.35 246.373 9.83 245.153 10.89C243.953 11.93 243.353 13.48 243.353 15.54C243.353 16.24 243.453 16.89 243.653 17.49C243.873 18.09 244.173 18.61 244.553 19.05C244.953 19.49 245.423 19.84 245.963 20.1C246.523 20.34 247.153 20.46 247.853 20.46C249.493 20.46 250.833 20.08 251.873 19.32C252.913 18.56 253.663 17.33 254.123 15.63C254.183 15.53 254.243 15.5 254.303 15.54C254.383 15.58 254.433 15.66 254.453 15.78C254.213 16.9 253.923 17.83 253.583 18.57C253.263 19.31 252.963 19.74 252.683 19.86C251.843 20.24 250.993 20.53 250.133 20.73C249.273 20.91 248.263 21 247.103 21C245.223 21 243.793 20.59 242.813 19.77C241.833 18.93 241.343 17.76 241.343 16.26C241.343 15.3 241.533 14.42 241.913 13.62C242.293 12.8 242.813 12.07 243.473 11.43C244.153 10.79 244.953 10.25 245.873 9.81C246.793 9.37 247.803 9.05 248.903 8.85C248.143 8.53 247.533 8.1 247.073 7.56C246.613 7.02 246.383 6.4 246.383 5.7C246.383 5.16 246.513 4.65 246.773 4.17C247.053 3.67 247.453 3.24 247.973 2.88C248.493 2.52 249.133 2.23 249.893 2.01C250.653 1.79 251.523 1.68 252.503 1.68C253.043 1.68 253.553 1.73 254.033 1.83C254.513 1.93 254.933 2.06 255.293 2.22C255.673 2.38 255.963 2.57 256.163 2.79C256.383 2.99 256.493 3.19 256.493 3.39C256.493 3.55 256.453 3.75 256.373 3.99C256.313 4.23 256.223 4.47 256.103 4.71C256.003 4.95 255.893 5.18 255.773 5.4C255.673 5.6 255.593 5.74 255.533 5.82C255.473 5.86 255.413 5.86 255.353 5.82C255.293 5.78 255.273 5.72 255.293 5.64C255.413 5.42 255.493 5.18 255.533 4.92C255.573 4.66 255.533 4.39 255.413 4.11C255.173 3.61 254.723 3.19 254.063 2.85C253.423 2.49 252.663 2.31 251.783 2.31C250.583 2.31 249.683 2.59 249.083 3.15C248.483 3.69 248.183 4.41 248.183 5.31ZM294.494 1.68C295.134 1.68 295.594 1.94 295.874 2.46C296.174 2.96 296.324 3.72 296.324 4.74C296.304 4.86 296.244 4.93 296.144 4.95C296.044 4.97 295.974 4.92 295.934 4.8C295.894 4.48 295.744 4.17 295.484 3.87C295.224 3.57 294.794 3.42 294.194 3.42C293.554 3.42 292.904 3.67 292.244 4.17C291.584 4.67 290.934 5.34 290.294 6.18C289.674 7.02 289.084 8.01 288.524 9.15C287.984 10.27 287.494 11.46 287.054 12.72C286.634 13.98 286.294 15.28 286.034 16.62C285.774 17.94 285.624 19.22 285.584 20.46C285.584 20.68 285.564 20.83 285.524 20.91C285.484 20.97 285.414 21 285.314 21C285.214 21 285.144 20.96 285.104 20.88C285.064 20.78 285.024 20.67 284.984 20.55C284.084 17.25 282.994 14.33 281.714 11.79C280.434 9.25 278.984 7.23 277.364 5.73C276.924 8.19 276.294 10.37 275.474 12.27C274.674 14.17 273.724 15.77 272.624 17.07C271.544 18.35 270.334 19.33 268.994 20.01C267.674 20.67 266.274 21 264.794 21C263.854 21 263.034 20.89 262.334 20.67C261.634 20.43 261.054 20.11 260.594 19.71C260.134 19.31 259.784 18.84 259.544 18.3C259.324 17.76 259.214 17.17 259.214 16.53C259.214 15.73 259.404 14.95 259.784 14.19C260.184 13.41 260.754 12.78 261.494 12.3C261.594 12.26 261.664 12.28 261.704 12.36C261.744 12.44 261.744 12.53 261.704 12.63C261.344 12.99 261.054 13.4 260.834 13.86C260.634 14.3 260.534 14.77 260.534 15.27C260.534 16.53 260.954 17.54 261.794 18.3C262.634 19.06 263.894 19.44 265.574 19.44C268.454 19.44 270.864 18.26 272.804 15.9C274.744 13.52 276.064 9.95 276.764 5.19C275.864 4.47 274.944 3.92 274.004 3.54C273.064 3.14 272.084 2.94 271.064 2.94C270.104 2.94 269.304 3.16 268.664 3.6C268.044 4.04 267.594 4.52 267.314 5.04C267.254 5.1 267.184 5.12 267.104 5.1C267.044 5.08 267.004 5.02 266.984 4.92C267.164 4.54 267.424 4.16 267.764 3.78C268.104 3.38 268.494 3.03 268.934 2.73C269.394 2.41 269.894 2.16 270.434 1.98C270.994 1.78 271.574 1.68 272.174 1.68C273.014 1.68 273.834 1.83 274.634 2.13C275.454 2.41 276.244 2.82 277.004 3.36C277.044 3.24 277.104 3.11 277.184 2.97C277.264 2.81 277.344 2.67 277.424 2.55C277.524 2.43 277.604 2.35 277.664 2.31C277.744 2.25 277.794 2.26 277.814 2.34C277.794 2.6 277.774 2.86 277.754 3.12C277.734 3.36 277.704 3.6 277.664 3.84C278.544 4.54 279.374 5.38 280.154 6.36C280.954 7.32 281.684 8.37 282.344 9.51C283.024 10.65 283.634 11.86 284.174 13.14C284.714 14.4 285.174 15.68 285.554 16.98C285.714 15.88 285.954 14.74 286.274 13.56C286.594 12.38 286.984 11.23 287.444 10.11C287.904 8.97 288.404 7.89 288.944 6.87C289.504 5.85 290.084 4.96 290.684 4.2C291.304 3.42 291.934 2.81 292.574 2.37C293.214 1.91 293.854 1.68 294.494 1.68ZM315.499 3.39C315.639 3.49 315.629 3.64 315.469 3.84C315.289 4.1 315.059 4.31 314.779 4.47C314.519 4.61 314.309 4.66 314.149 4.62C313.949 4.56 313.749 4.5 313.549 4.44C313.369 4.38 313.169 4.32 312.949 4.26C312.449 4.3 311.969 4.46 311.509 4.74C311.049 5 310.609 5.4 310.189 5.94C309.769 6.46 309.369 7.13 308.989 7.95C308.609 8.75 308.239 9.72 307.879 10.86C306.839 14.24 305.379 16.78 303.499 18.48C301.639 20.16 299.399 21 296.779 21C295.339 21 294.219 20.69 293.419 20.07C292.619 19.45 292.219 18.65 292.219 17.67C292.219 16.97 292.439 16.33 292.879 15.75C293.339 15.15 293.889 14.71 294.529 14.43C294.609 14.43 294.659 14.47 294.679 14.55C294.719 14.63 294.719 14.7 294.679 14.76C294.339 15.02 294.099 15.31 293.959 15.63C293.819 15.95 293.749 16.32 293.749 16.74C293.749 17.76 294.129 18.55 294.889 19.11C295.669 19.67 296.759 19.95 298.159 19.95C299.119 19.95 299.959 19.83 300.679 19.59C301.419 19.33 302.079 18.89 302.659 18.27C303.239 17.65 303.769 16.82 304.249 15.78C304.749 14.72 305.259 13.39 305.779 11.79C306.499 9.53 307.379 7.75 308.419 6.45C309.459 5.13 310.659 4.32 312.019 4.02C310.699 3.68 309.329 3.41 307.909 3.21C306.489 3.01 305.049 2.91 303.589 2.91C302.469 2.91 301.489 3.09 300.649 3.45C299.809 3.79 299.119 4.26 298.579 4.86C298.039 5.44 297.649 6.13 297.409 6.93C297.169 7.73 297.109 8.58 297.229 9.48C297.129 9.68 297.019 9.7 296.899 9.54C296.779 8.54 296.859 7.57 297.139 6.63C297.419 5.69 297.889 4.85 298.549 4.11C299.209 3.37 300.059 2.78 301.099 2.34C302.159 1.9 303.419 1.68 304.879 1.68C306.999 1.68 308.939 1.86 310.699 2.22C312.459 2.56 314.059 2.95 315.499 3.39ZM313.002 17.07C313.002 16.21 313.222 15.48 313.662 14.88C314.122 14.28 314.742 13.82 315.522 13.5C315.622 13.46 315.692 13.49 315.732 13.59C315.772 13.69 315.762 13.78 315.702 13.86C315.342 14.06 315.052 14.37 314.832 14.79C314.632 15.21 314.532 15.72 314.532 16.32C314.532 17.54 314.982 18.5 315.882 19.2C316.782 19.9 317.952 20.25 319.392 20.25C321.272 20.25 322.612 19.88 323.412 19.14C324.232 18.4 324.642 17.43 324.642 16.23C324.642 15.11 324.412 14.13 323.952 13.29C323.492 12.43 322.982 11.63 322.422 10.89C321.882 10.13 321.382 9.37 320.922 8.61C320.462 7.85 320.232 6.99 320.232 6.03C320.232 5.47 320.352 4.93 320.592 4.41C320.852 3.89 321.202 3.43 321.642 3.03C322.102 2.61 322.642 2.28 323.262 2.04C323.882 1.8 324.562 1.68 325.302 1.68C326.322 1.68 327.122 1.9 327.702 2.34C328.302 2.76 328.602 3.27 328.602 3.87C328.602 4.21 328.452 4.63 328.152 5.13C327.872 5.61 327.582 6.03 327.282 6.39C327.202 6.43 327.132 6.42 327.072 6.36C327.012 6.3 326.992 6.23 327.012 6.15C327.112 5.99 327.192 5.8 327.252 5.58C327.332 5.34 327.372 5.08 327.372 4.8C327.372 4.48 327.302 4.18 327.162 3.9C327.022 3.6 326.822 3.35 326.562 3.15C326.302 2.93 326.002 2.76 325.662 2.64C325.322 2.5 324.962 2.43 324.582 2.43C323.582 2.43 322.852 2.67 322.392 3.15C321.932 3.63 321.702 4.25 321.702 5.01C321.702 5.61 321.812 6.18 322.032 6.72C322.272 7.24 322.562 7.77 322.902 8.31C323.242 8.83 323.602 9.36 323.982 9.9C324.382 10.42 324.752 10.97 325.092 11.55C325.432 12.11 325.712 12.71 325.932 13.35C326.172 13.97 326.292 14.65 326.292 15.39C326.292 16.17 326.092 16.9 325.692 17.58C325.312 18.26 324.782 18.86 324.102 19.38C323.422 19.88 322.632 20.28 321.732 20.58C320.832 20.86 319.862 21 318.822 21C316.922 21 315.472 20.63 314.472 19.89C313.492 19.15 313.002 18.21 313.002 17.07Z" fill="#359F7F"/>
</g>
<defs>
<filter id="filter0_d_1_3" x="0.617188" y="0.57" width="331.985" height="34.01" filterUnits="userSpaceOnUse" color-interpolation-filters="sRGB">
<feFlood flood-opacity="0" result="BackgroundImageFix"/>
<feColorMatrix in="SourceAlpha" type="matrix" values="0 0 0 0 0 0 0 0 0 0 0 0 0 0 0 0 0 0 127 0" result="hardAlpha"/>
<feOffset dy="4"/>
<feGaussianBlur stdDeviation="2"/>
<feComposite in2="hardAlpha" operator="out"/>
<feColorMatrix type="matrix" values="0 0 0 0 0 0 0 0 0 0 0 0 0 0 0 0 0 0 0.25 0"/>
<feBlend mode="normal" in2="BackgroundImageFix" result="effect1_dropShadow_1_3"/>
<feBlend mode="normal" in="SourceGraphic" in2="effect1_dropShadow_1_3" result="shape"/>
</filter>
</defs>
</svg>
