<svg width="221" height="58" viewBox="0 0 221 58" fill="none" xmlns="http://www.w3.org/2000/svg">
<g filter="url(#filter0_d_1_3)">
<path d="M5.93383 33.48C5.05383 31.8267 4.61383 29.88 4.61383 27.64C4.61383 25.56 4.96049 23.7067 5.65383 22.08C6.37383 20.4267 7.14716 19.1067 7.97383 18.12C8.82716 17.1067 9.85383 16.3067 11.0538 15.72C12.2805 15.1067 13.5738 14.8 14.9338 14.8C16.8538 14.8 18.3872 15.3467 19.5338 16.44L24.7738 12.04C24.6672 11.1067 24.6138 10.1867 24.6138 9.28C24.6138 3.36 26.1738 0.399999 29.2938 0.399999C30.0938 0.399999 30.7205 0.68 31.1738 1.24C31.6272 1.8 31.8805 2.52 31.9338 3.4C31.9605 4.68 31.5472 5.96 30.6938 7.24C29.8672 8.52 28.6405 9.92 27.0138 11.44C27.8405 16.96 28.2538 20.72 28.2538 22.72C28.2538 24.6933 28.0005 26.6133 27.4938 28.48C26.9872 30.32 26.2138 32 25.1738 33.52C24.1338 35.04 22.7072 36.2267 20.8938 37.08C19.0805 37.9333 16.9738 38.36 14.5738 38.36C11.1338 38.36 8.53383 37.1867 6.77383 34.84C6.29383 36.52 6.05383 38.4267 6.05383 40.56C6.05383 42.72 6.61383 44.6533 7.73383 46.36C8.88049 48.0933 10.3472 48.96 12.1338 48.96C12.2672 48.96 12.3338 49.0933 12.3338 49.36C12.3605 49.6267 12.2938 49.76 12.1338 49.76C10.0272 49.76 8.29383 48.76 6.93383 46.76C5.57383 44.7867 4.89383 42.5867 4.89383 40.16C4.89383 37.7333 5.24049 35.5067 5.93383 33.48ZM20.2138 17.2C20.9605 18.2133 21.3338 19.36 21.3338 20.64C21.3338 21.8933 21.1338 23.0267 20.7338 24.04C20.3605 25.0267 19.6805 25.9067 18.6938 26.68C17.7338 27.4267 16.6138 27.8 15.3338 27.8C15.0672 27.8 14.8538 27.7333 14.6938 27.6C14.5605 27.4667 14.4672 27.2533 14.4138 26.96C15.5605 26.96 16.6138 26.4267 17.5738 25.36C18.9605 23.8667 19.6538 22.1867 19.6538 20.32C19.6538 19.5467 19.5072 18.8 19.2138 18.08C16.2272 20.64 13.7072 23.1467 11.6538 25.6C9.60049 28.0533 8.09383 30.72 7.13383 33.6C8.65383 36.0533 11.0405 37.28 14.2938 37.28C16.2938 37.28 18.0405 36.8533 19.5338 36C21.0538 35.1733 22.2405 34.04 23.0938 32.6C24.7738 29.7733 25.6138 26.3467 25.6138 22.32C25.6138 21.3333 25.3738 18.3333 24.8938 13.32L20.2138 17.2ZM18.6138 17.24C17.7605 16.3333 16.5872 15.88 15.0938 15.88C13.6005 15.88 12.2538 16.24 11.0538 16.96C8.84049 18.2933 7.25383 20.5333 6.29383 23.68C5.86716 25.0133 5.65383 26.3867 5.65383 27.8C5.65383 29.3733 5.90716 30.8267 6.41383 32.16C8.25383 27.5467 12.3205 22.5733 18.6138 17.24ZM26.6538 7.24C26.6538 7.96 26.7205 8.92 26.8538 10.12C29.4938 7.53333 30.8138 5.34667 30.8138 3.56C30.8138 2.17333 30.3072 1.48 29.2938 1.48C27.5338 1.48 26.6538 3.4 26.6538 7.24ZM45.0155 31.92C46.0022 31.92 46.9489 31.2933 47.8555 30.04C49.4822 27.7467 50.5755 24.6533 51.1355 20.76C50.2822 20.3333 49.7089 19.76 49.4155 19.04C49.1489 18.32 49.0155 17.76 49.0155 17.36C49.0155 15.9733 49.4689 15.28 50.3755 15.28C51.4955 15.28 52.0555 16.52 52.0555 19C52.0555 19.2667 52.0555 19.5467 52.0555 19.84C52.4555 19.9733 52.9489 20.04 53.5355 20.04C54.1489 20.04 54.6955 19.7867 55.1755 19.28C55.6555 18.7733 55.8955 18.3067 55.8955 17.88C55.8955 17.7733 55.9489 17.7067 56.0555 17.68C56.1889 17.6267 56.3222 17.6267 56.4555 17.68C56.5889 17.7333 56.6555 17.8133 56.6555 17.92C56.6555 18.6933 56.3222 19.4267 55.6555 20.12C55.0155 20.8133 54.1489 21.16 53.0555 21.16C52.6555 21.16 52.2955 21.12 51.9755 21.04C51.4955 25.2533 50.2555 28.6 48.2555 31.08C47.2155 32.36 46.1089 33 44.9355 33C43.0689 33 41.8155 32.0133 41.1755 30.04C39.6022 32.0133 38.0955 33 36.6555 33C34.6289 33 33.3755 32.3067 32.8955 30.92C32.6289 30.1733 32.4955 29.3733 32.4955 28.52C32.4955 27.6667 32.5889 26.72 32.7755 25.68C33.1755 23.7067 33.9489 20.76 35.0955 16.84C35.2555 16.28 35.5089 16 35.8555 16C36.3355 16 36.6822 16.3333 36.8955 17C37.0022 17.32 37.0555 17.7067 37.0555 18.16C37.0555 18.5867 36.9889 19.04 36.8555 19.52C36.7222 20 36.5622 20.5867 36.3755 21.28C36.1889 21.9733 36.0289 22.56 35.8955 23.04C35.7622 23.52 35.6022 24.1067 35.4155 24.8C35.2555 25.4933 35.1222 26.0933 35.0155 26.6C34.9355 27.1067 34.8555 27.6533 34.7755 28.24C34.7222 28.8267 34.7222 29.3333 34.7755 29.76C34.8289 30.16 34.9222 30.5333 35.0555 30.88C35.3222 31.5733 35.8822 31.92 36.7355 31.92C38.0155 31.92 39.3889 30.8667 40.8555 28.76C40.7489 28.12 40.6955 27.4667 40.6955 26.8C40.6955 25.0133 41.0289 23.1067 41.6955 21.08C42.6289 18.3067 43.5755 16.92 44.5355 16.92C45.3089 16.92 45.6955 17.52 45.6955 18.72C45.6955 19.2 45.6289 19.76 45.4955 20.4C45.0955 22.6667 44.2155 25.0133 42.8555 27.44C43.0955 30.4267 43.8155 31.92 45.0155 31.92ZM42.8155 25.4C43.3755 24.2533 43.8422 23.12 44.2155 22C44.5889 20.88 44.7889 20.1333 44.8155 19.76C44.8689 19.36 44.8955 19.0267 44.8955 18.76C44.8955 18.4933 44.7889 18.3333 44.5755 18.28C44.1222 18.28 43.7222 19.0267 43.3755 20.52C43.0289 21.9867 42.8422 23.6133 42.8155 25.4ZM57.8848 27.16C57.8848 30.3867 59.0314 32 61.3248 32C62.1781 32 63.0714 31.6267 64.0048 30.88C64.9648 30.1067 65.8314 29.1867 66.6048 28.12C68.3114 25.6667 69.5114 23.6667 70.2048 22.12L70.7248 21H71.8048C71.3514 22.0667 70.6848 23.3867 69.8048 24.96C68.9248 26.5067 68.0848 27.8133 67.2848 28.88C66.4848 29.9467 65.5381 30.92 64.4448 31.8C63.3514 32.6533 62.3114 33.08 61.3248 33.08C57.3781 33.08 55.4048 30.8667 55.4048 26.44C55.4048 24.3867 56.0048 22.3333 57.2048 20.28C58.8581 17.4267 60.8981 16 63.3248 16C65.0314 16 65.8848 16.9333 65.8848 18.8C65.8848 20.1867 65.3514 21.6267 64.2848 23.12C62.7914 25.1467 61.0448 26.1733 59.0448 26.2C58.7514 26.2 58.5648 26.0667 58.4848 25.8L58.4448 25.64C59.8314 25.64 61.1514 24.7333 62.4048 22.92C63.6848 21.08 64.3248 19.5467 64.3248 18.32C64.3248 17.4933 64.0048 17.08 63.3648 17.08C61.9514 17.08 60.6314 18.32 59.4048 20.8C58.3914 22.9067 57.8848 25.0267 57.8848 27.16ZM71.7031 27.16C71.7031 30.3867 72.8498 32 75.1431 32C75.9965 32 76.8898 31.6267 77.8231 30.88C78.7831 30.1067 79.6498 29.1867 80.4231 28.12C82.1298 25.6667 83.3298 23.6667 84.0231 22.12L84.5431 21H85.6231C85.1698 22.0667 84.5031 23.3867 83.6231 24.96C82.7431 26.5067 81.9031 27.8133 81.1031 28.88C80.3031 29.9467 79.3565 30.92 78.2631 31.8C77.1698 32.6533 76.1298 33.08 75.1431 33.08C71.1965 33.08 69.2231 30.8667 69.2231 26.44C69.2231 24.3867 69.8231 22.3333 71.0231 20.28C72.6765 17.4267 74.7165 16 77.1431 16C78.8498 16 79.7031 16.9333 79.7031 18.8C79.7031 20.1867 79.1698 21.6267 78.1031 23.12C76.6098 25.1467 74.8631 26.1733 72.8631 26.2C72.5698 26.2 72.3831 26.0667 72.3031 25.8L72.2631 25.64C73.6498 25.64 74.9698 24.7333 76.2231 22.92C77.5031 21.08 78.1431 19.5467 78.1431 18.32C78.1431 17.4933 77.8231 17.08 77.1831 17.08C75.7698 17.08 74.4498 18.32 73.2231 20.8C72.2098 22.9067 71.7031 25.0267 71.7031 27.16ZM83.4015 15.52C83.4015 15.2267 83.5882 15.08 83.9615 15.08H86.0415C86.1748 14.5467 86.3482 13.88 86.5615 13.08L87.1215 11C87.2815 10.3867 87.4148 9.82667 87.5215 9.32C87.6548 8.81333 87.8948 8.56 88.2415 8.56C88.6948 8.56 89.0148 8.90667 89.2015 9.6C89.2815 9.89333 89.3215 10.2533 89.3215 10.68C89.3215 11.1067 89.2415 11.6533 89.0815 12.32L88.3215 15.08H90.8015C91.0415 15.08 91.2015 15.16 91.2815 15.32C91.3882 15.48 91.3882 15.64 91.2815 15.8C91.2015 15.9333 91.0415 16 90.8015 16H88.0815C86.4282 22.2133 85.6015 26.6133 85.6015 29.2C85.6015 31.0933 86.0282 32.04 86.8815 32.04C87.5748 32.04 88.5482 31.12 89.8015 29.28C91.0548 27.44 92.1348 25.6 93.0415 23.76L94.4015 21H95.4815C95.3215 21.32 95.1082 21.76 94.8415 22.32C94.6015 22.8533 94.1082 23.8267 93.3615 25.24C92.6148 26.6267 91.8948 27.8533 91.2015 28.92C90.5348 29.9867 89.7748 30.96 88.9215 31.84C88.0948 32.6933 87.3215 33.12 86.6015 33.12C85.8815 33.12 85.2548 32.8933 84.7215 32.44C84.2148 31.96 83.8948 31.2933 83.7615 30.44C83.6015 29.56 83.5215 28.6667 83.5215 27.76C83.5215 25.6533 84.2682 21.7333 85.7615 16H83.9615C83.7482 16 83.6015 15.9467 83.5215 15.84C83.4415 15.7067 83.4015 15.6 83.4015 15.52ZM105.105 18.4C105.771 18.4 106.105 18.96 106.105 20.08C106.105 20.88 105.665 23.2 104.785 27.04C103.905 30.8533 103.118 34.0133 102.425 36.52C101.731 39.0267 101.078 40.88 100.465 42.08C99.8514 43.3067 99.1048 44.5333 98.2248 45.76C97.3714 46.9867 96.4248 47.8267 95.3848 48.28C94.3448 48.7333 93.1448 48.96 91.7848 48.96C89.2514 48.96 87.9848 47.6667 87.9848 45.08C87.9848 43.56 88.5581 41.92 89.7048 40.16C91.3581 37.5733 93.5714 35.8667 96.3448 35.04C97.3314 34.7467 98.3581 34.6 99.4248 34.6C99.6114 34.6 99.7048 34.7867 99.7048 35.16C99.7048 35.5333 99.6114 35.72 99.4248 35.72C96.2781 35.72 93.6381 36.96 91.5048 39.44C89.9314 41.3067 89.1448 43.1067 89.1448 44.84C89.1448 46.5733 89.8114 47.5733 91.1448 47.84L91.7848 47.88C93.9714 47.88 95.7048 46.9733 96.9848 45.16C98.2914 43.32 99.3181 41 100.065 38.2C100.811 35.3733 101.771 30.9467 102.945 24.92H102.625C99.7448 30.3333 97.3714 33.04 95.5048 33.04C93.3981 33.04 92.3448 31.4533 92.3448 28.28C92.3448 26.44 92.8248 24.4267 93.7848 22.24C95.1181 19.28 96.8114 17.3467 98.8648 16.44C99.5848 16.1467 100.305 16 101.025 16C101.771 16 102.358 16.2133 102.785 16.64C103.211 17.0667 103.425 17.5467 103.425 18.08C103.425 18.32 103.291 18.44 103.025 18.44C102.785 18.4133 102.665 18.28 102.665 18.04C102.665 17.8 102.531 17.5867 102.265 17.4C102.025 17.1867 101.665 17.08 101.185 17.08C99.5048 17.08 97.9848 18.5867 96.6248 21.6C95.3448 24.4 94.7048 27.0533 94.7048 29.56C94.7048 31.1067 95.0381 31.88 95.7048 31.88C96.5848 31.88 97.7314 30.84 99.1448 28.76C101.278 25.6133 102.945 22.5333 104.145 19.52C104.465 18.7733 104.785 18.4 105.105 18.4ZM109.352 33C108.605 33 108.232 32.4267 108.232 31.28C108.232 30.6667 108.979 26.2 110.472 17.88C110.579 17.32 110.819 17.04 111.192 17.04C111.672 17.04 112.032 17.3867 112.272 18.08C112.405 18.4533 112.472 18.8667 112.472 19.32C112.472 19.7467 112.419 20.2133 112.312 20.72L111.672 24H111.872C114.165 18.6667 116.272 16 118.192 16C119.259 16 119.965 16.52 120.312 17.56C120.445 17.96 120.512 18.4267 120.512 18.96C120.512 19.4667 120.365 20.0267 120.072 20.64C119.565 21.68 118.805 22.2 117.792 22.2C117.579 22.2 117.405 22.1467 117.272 22.04C117.165 21.9333 117.099 21.7867 117.072 21.6C117.285 21.6 117.565 21.2133 117.912 20.44C118.259 19.64 118.459 18.9067 118.512 18.24C118.565 17.5733 118.339 17.1867 117.832 17.08C116.899 17.08 115.792 18.2933 114.512 20.72C113.232 23.1467 112.205 25.4667 111.432 27.68C110.659 29.8933 110.205 31.3333 110.072 32C109.939 32.6667 109.699 33 109.352 33ZM123.923 33.04C121.816 33.04 120.763 31.4533 120.763 28.28C120.763 26.44 121.243 24.4267 122.203 22.24C123.536 19.28 125.229 17.3467 127.283 16.44C128.003 16.1467 128.723 16 129.443 16C130.189 16 130.776 16.2133 131.203 16.64C131.629 17.0667 131.843 17.5467 131.843 18.08C131.843 18.32 131.709 18.44 131.443 18.44C131.203 18.4133 131.083 18.28 131.083 18.04C131.083 17.8 130.949 17.5867 130.683 17.4C130.443 17.1867 130.083 17.08 129.603 17.08C127.923 17.08 126.403 18.5867 125.043 21.6C123.763 24.4 123.123 27.0533 123.123 29.56C123.123 31.1067 123.456 31.88 124.123 31.88C124.816 31.88 125.643 31.3067 126.603 30.16C127.589 28.9867 128.496 27.6267 129.323 26.08C131.109 22.8267 132.163 20.7333 132.483 19.8C132.803 18.8667 133.149 18.4 133.523 18.4C134.189 18.4 134.523 18.96 134.523 20.08C134.523 20.4267 134.483 20.8267 134.403 21.28C133.523 25.5467 133.043 28.0133 132.963 28.68C132.909 29.3467 132.883 29.8267 132.883 30.12C132.883 31.4 133.189 32.04 133.803 32.04C134.496 32.04 135.469 31.12 136.723 29.28C137.976 27.44 139.056 25.6 139.963 23.76L141.323 21H142.403C142.243 21.32 142.029 21.76 141.763 22.32C141.523 22.8533 141.029 23.8267 140.283 25.24C139.536 26.6267 138.816 27.8533 138.123 28.92C137.456 29.9867 136.696 30.96 135.843 31.84C135.016 32.6933 134.296 33.12 133.683 33.12C131.709 33.12 130.723 31.68 130.723 28.8C130.723 27.84 130.829 26.72 131.043 25.44H130.763C128.043 30.5067 125.763 33.04 123.923 33.04ZM155.54 10.56C154.766 13.36 154.153 15.6933 153.7 17.56C153.273 19.4 152.793 21.5467 152.26 24C151.753 26.4267 151.5 28.3733 151.5 29.84C151.5 31.3067 151.833 32.04 152.5 32.04C153.22 32.04 154.206 31.12 155.46 29.28C156.74 27.44 157.833 25.6 158.74 23.76L160.06 21H161.14C160.98 21.32 160.766 21.76 160.5 22.32C160.26 22.8533 159.766 23.8267 159.02 25.24C158.273 26.6267 157.553 27.8533 156.86 28.92C156.193 29.9867 155.433 30.96 154.58 31.84C153.726 32.6933 152.993 33.12 152.38 33.12C150.46 33.12 149.5 31.7067 149.5 28.88C149.5 27.84 149.646 26.48 149.94 24.8H149.62C146.66 30.2933 144.26 33.04 142.42 33.04C140.313 33.04 139.26 31.4533 139.26 28.28C139.26 26.44 139.74 24.4267 140.7 22.24C142.033 19.28 143.726 17.3467 145.78 16.44C146.5 16.1467 147.22 16 147.94 16C148.686 16 149.273 16.2133 149.7 16.64C150.126 17.0667 150.34 17.5467 150.34 18.08C150.34 18.32 150.206 18.44 149.94 18.44C149.7 18.4133 149.58 18.28 149.58 18.04C149.58 17.8 149.446 17.5867 149.18 17.4C148.94 17.1867 148.58 17.08 148.1 17.08C146.42 17.08 144.9 18.5867 143.54 21.6C142.26 24.4 141.62 27.0533 141.62 29.56C141.62 31.1067 141.953 31.88 142.62 31.88C143.526 31.88 144.66 30.8933 146.02 28.92C147.38 26.9467 148.566 24.8267 149.58 22.56C150.62 20.2933 151.353 18.2267 151.78 16.36C152.233 14.4667 152.913 11.8933 153.82 8.64C154.406 6.53333 155.18 5.48 156.14 5.48C156.353 5.48 156.513 5.56 156.62 5.72C156.726 5.85333 156.766 6 156.74 6.16C156.713 6.29334 156.313 7.76 155.54 10.56ZM164.29 9.04C164.903 9.04 165.21 9.45333 165.21 10.28C165.21 11.1067 164.81 11.7733 164.01 12.28C163.61 12.5467 163.263 12.68 162.97 12.68C162.543 12.68 162.29 12.5467 162.21 12.28L162.17 12.16C162.41 12.16 162.583 11.9067 162.69 11.4C162.796 10.8667 162.956 10.3467 163.17 9.84C163.41 9.30667 163.783 9.04 164.29 9.04ZM161.73 32.04C162.423 32.04 163.396 31.12 164.65 29.28C165.903 27.44 166.983 25.6 167.89 23.76L169.25 21H170.33C170.17 21.32 169.956 21.76 169.69 22.32C169.45 22.8533 168.956 23.8267 168.21 25.24C167.463 26.6267 166.743 27.8533 166.05 28.92C165.383 29.9867 164.623 30.96 163.77 31.84C162.943 32.6933 162.223 33.12 161.61 33.12C159.636 33.12 158.65 31.84 158.65 29.28C158.65 27.36 159.196 24.24 160.29 19.92C160.396 19.4667 160.476 19.12 160.53 18.88C160.61 18.64 160.69 18.3333 160.77 17.96C160.85 17.56 160.93 17.2 161.01 16.88C161.143 16.32 161.383 16.04 161.73 16.04C162.21 16.04 162.556 16.3867 162.77 17.08C162.876 17.4 162.93 17.7867 162.93 18.24C162.93 18.6933 162.876 19.1733 162.77 19.68C162.663 20.16 162.49 20.88 162.25 21.84C162.01 22.8 161.823 23.5867 161.69 24.2C161.556 24.8133 161.41 25.56 161.25 26.44C160.956 27.9067 160.81 29.2133 160.81 30.36C160.81 31.48 161.116 32.04 161.73 32.04ZM170.189 27.16C170.189 30.3867 171.336 32 173.629 32C174.483 32 175.376 31.6267 176.309 30.88C177.269 30.1067 178.136 29.1867 178.909 28.12C180.616 25.6667 181.816 23.6667 182.509 22.12L183.029 21H184.109C183.656 22.0667 182.989 23.3867 182.109 24.96C181.229 26.5067 180.389 27.8133 179.589 28.88C178.789 29.9467 177.843 30.92 176.749 31.8C175.656 32.6533 174.616 33.08 173.629 33.08C169.683 33.08 167.709 30.8667 167.709 26.44C167.709 24.3867 168.309 22.3333 169.509 20.28C171.163 17.4267 173.203 16 175.629 16C177.336 16 178.189 16.9333 178.189 18.8C178.189 20.1867 177.656 21.6267 176.589 23.12C175.096 25.1467 173.349 26.1733 171.349 26.2C171.056 26.2 170.869 26.0667 170.789 25.8L170.749 25.64C172.136 25.64 173.456 24.7333 174.709 22.92C175.989 21.08 176.629 19.5467 176.629 18.32C176.629 17.4933 176.309 17.08 175.669 17.08C174.256 17.08 172.936 18.32 171.709 20.8C170.696 22.9067 170.189 25.0267 170.189 27.16ZM182.408 33C181.661 33 181.288 32.4267 181.288 31.28C181.288 30.6667 182.034 26.2 183.528 17.88C183.608 17.32 183.848 17.04 184.248 17.04C184.728 17.04 185.088 17.3867 185.328 18.08C185.461 18.4533 185.528 18.8667 185.528 19.32C185.528 19.7467 185.474 20.2133 185.368 20.72L184.728 23.92H184.968C187.368 18.5333 189.661 15.84 191.848 15.84C192.701 15.84 193.354 16.1067 193.808 16.64C194.261 17.1467 194.488 17.8533 194.488 18.76C194.488 19.6667 194.128 21.6267 193.408 24.64C192.688 27.6533 192.328 29.7467 192.328 30.92C192.328 32.6533 192.648 33.52 193.288 33.52C193.288 33.7067 193.168 33.8933 192.928 34.08C192.688 34.2667 192.408 34.36 192.088 34.36C190.541 34.36 189.768 33.1467 189.768 30.72C189.768 29.2267 190.168 26.9733 190.968 23.96C191.794 20.92 192.208 18.9867 192.208 18.16C192.208 17.3067 191.874 16.88 191.208 16.88C190.248 16.88 189.088 18.1333 187.728 20.64C186.394 23.1467 185.314 25.5467 184.488 27.84C183.688 30.1067 183.221 31.5333 183.088 32.12C182.981 32.7067 182.754 33 182.408 33ZM198.148 15.52C198.148 15.2267 198.334 15.08 198.708 15.08H200.788C200.921 14.5467 201.094 13.88 201.308 13.08L201.868 11C202.028 10.3867 202.161 9.82667 202.268 9.32C202.401 8.81333 202.641 8.56 202.988 8.56C203.441 8.56 203.761 8.90667 203.948 9.6C204.028 9.89333 204.068 10.2533 204.068 10.68C204.068 11.1067 203.988 11.6533 203.828 12.32L203.068 15.08H205.548C205.788 15.08 205.948 15.16 206.028 15.32C206.134 15.48 206.134 15.64 206.028 15.8C205.948 15.9333 205.788 16 205.548 16H202.828C201.174 22.2133 200.348 26.6133 200.348 29.2C200.348 31.0933 200.774 32.04 201.628 32.04C202.321 32.04 203.294 31.12 204.548 29.28C205.801 27.44 206.881 25.6 207.788 23.76L209.148 21H210.228C210.068 21.32 209.854 21.76 209.588 22.32C209.348 22.8533 208.854 23.8267 208.108 25.24C207.361 26.6267 206.641 27.8533 205.948 28.92C205.281 29.9867 204.521 30.96 203.668 31.84C202.841 32.6933 202.068 33.12 201.348 33.12C200.628 33.12 200.001 32.8933 199.468 32.44C198.961 31.96 198.641 31.2933 198.508 30.44C198.348 29.56 198.268 28.6667 198.268 27.76C198.268 25.6533 199.014 21.7333 200.508 16H198.708C198.494 16 198.348 15.9467 198.268 15.84C198.188 15.7067 198.148 15.6 198.148 15.52ZM214.051 11.64H214.131C214.371 11.6667 214.558 11.7733 214.691 11.96C214.824 12.1467 214.891 12.3467 214.891 12.56C214.891 12.7467 214.704 13.16 214.331 13.8C213.984 14.44 213.811 14.96 213.811 15.36C213.811 15.7333 213.864 16.0933 213.971 16.44C214.078 16.76 214.411 17.56 214.971 18.84C216.198 21.64 216.811 24.1467 216.811 26.36C216.811 28.5467 216.211 30.36 215.011 31.8C213.838 33.24 212.424 33.96 210.771 33.96C209.144 33.96 208.331 32.9733 208.331 31C208.331 29 209.038 26.8667 210.451 24.6C211.278 23.2933 212.171 22.3067 213.131 21.64C213.398 21.4533 213.571 21.4933 213.651 21.76C213.758 22.0267 213.704 22.24 213.491 22.4C211.944 23.52 210.744 25.2933 209.891 27.72C209.118 29.9067 209.038 31.4267 209.651 32.28C209.864 32.6 210.171 32.76 210.571 32.76C211.744 32.76 212.664 31.9733 213.331 30.4C213.998 28.8267 214.331 26.8667 214.331 24.52C214.331 22.4933 214.091 20.6133 213.611 18.88C213.131 17.1467 212.864 16.1467 212.811 15.88C212.011 17.4 211.144 19.1067 210.211 21H209.131C210.651 17.9867 211.824 15.72 212.651 14.2C212.758 12.4933 213.224 11.64 214.051 11.64Z" fill="#4AA2A2"/>
</g>
<defs>
<filter id="filter0_d_1_3" x="0.613831" y="0.399994" width="220.197" height="57.36" filterUnits="userSpaceOnUse" color-interpolation-filters="sRGB">
<feFlood flood-opacity="0" result="BackgroundImageFix"/>
<feColorMatrix in="SourceAlpha" type="matrix" values="0 0 0 0 0 0 0 0 0 0 0 0 0 0 0 0 0 0 127 0" result="hardAlpha"/>
<feOffset dy="4"/>
<feGaussianBlur stdDeviation="2"/>
<feComposite in2="hardAlpha" operator="out"/>
<feColorMatrix type="matrix" values="0 0 0 0 0 0 0 0 0 0 0 0 0 0 0 0 0 0 0.25 0"/>
<feBlend mode="normal" in2="BackgroundImageFix" result="effect1_dropShadow_1_3"/>
<feBlend mode="normal" in="SourceGraphic" in2="effect1_dropShadow_1_3" result="shape"/>
</filter>
</defs>
</svg>
